<?xml version="1.0" encoding="UTF-8"?>
<svg version="1.1" xmlns="http://www.w3.org/2000/svg" width="512" height="512">
<path d="M0 0 C1.7684442 -0.01064158 1.7684442 -0.01064158 3.57261455 -0.02149814 C6.81856436 -0.03597557 10.06355302 -0.02825577 13.30945897 -0.01077521 C16.82007391 0.00265989 20.33058198 -0.01286002 23.84118652 -0.02459717 C30.70737121 -0.04293148 37.57327045 -0.03449029 44.43944611 -0.01650894 C50.0207766 -0.00245896 55.60202983 0.00140472 61.18337631 -0.00195122 C61.97901567 -0.00242866 62.77465502 -0.0029061 63.59440466 -0.00339801 C65.21091949 -0.00442438 66.8274343 -0.00547974 68.44394909 -0.00656378 C82.72252654 -0.01512203 97.00096651 0.00151691 111.2795105 0.03126526 C125.12527233 0.06011141 138.97083622 0.06717994 152.81661987 0.05177307 C167.90784319 0.03500325 182.99897262 0.03098382 198.0901984 0.04848343 C199.70001339 0.05032776 201.30982839 0.05216248 202.9196434 0.0539875 C203.71163159 0.05489959 204.50361977 0.05581168 205.31960759 0.05675141 C210.89344803 0.06235112 216.46724254 0.05905501 222.04108047 0.05244255 C228.83470324 0.04470265 235.62813133 0.05148582 242.42171492 0.07661759 C245.88607849 0.08909629 249.35013922 0.09527917 252.81451416 0.08407593 C256.57311318 0.07539035 260.33083019 0.09132434 264.08935547 0.11352539 C265.72505924 0.10116424 265.72505924 0.10116424 267.39380753 0.08855337 C275.53838839 0.17737926 281.83266992 1.92837126 287.73019409 7.94068909 C288.2728894 8.4730719 288.81558472 9.00545471 289.37472534 9.55397034 C294.29419865 16.16723698 294.35097494 22.35913825 294.31210327 30.33627319 C294.31819438 31.51126159 294.32428548 32.68624998 294.33056116 33.89684409 C294.3442999 37.14547841 294.34465148 40.39379047 294.33918619 43.64243901 C294.33651075 47.15109089 294.35105747 50.65967866 294.36328125 54.16830444 C294.38431626 61.0374973 294.3888772 67.90660571 294.38709337 74.77582697 C294.38578469 80.3610159 294.38959528 85.94617854 294.39701843 91.53136253 C294.39911768 93.14144045 294.40121528 94.75151837 294.40331125 96.36159629 C294.40487654 97.56375345 294.40487654 97.56375345 294.40647346 98.79019662 C294.42536828 113.94143514 294.42432805 129.09262522 294.41750413 144.24387064 C294.41193007 158.09451225 294.43274957 171.94496882 294.4658646 185.79556719 C294.49962581 200.02722919 294.51476685 214.25880261 294.51014757 228.4905054 C294.50790523 236.47654521 294.51311148 244.46241403 294.53804016 252.44841957 C294.55908483 259.24792015 294.56261415 266.04715599 294.54374057 272.84666757 C294.53460174 276.31336354 294.53338167 279.77956632 294.55409622 283.24622345 C294.57228014 287.01098269 294.55954294 290.77443411 294.53915405 294.53915405 C294.5516719 295.62584391 294.56418975 296.71253377 294.57708693 297.83215362 C294.48524821 305.75791896 292.77725133 312.79960625 286.98652792 318.54385692 C277.68549906 326.32609887 266.99274737 326.04160251 255.50753784 325.92115784 C253.92856756 325.91555298 252.34959202 325.91128709 250.77061462 325.90829468 C246.64252977 325.89691581 242.51476852 325.86750985 238.3868103 325.83418274 C234.16342545 325.80333059 229.93998761 325.78975718 225.71652222 325.77467346 C217.45009873 325.74263238 209.18393682 325.69152186 200.91769409 325.62818909 C200.92768684 326.91032791 200.92768684 326.91032791 200.93788147 328.21836853 C200.99821698 336.3091023 201.04378194 344.39975953 201.07313061 352.49066734 C201.08872675 356.64939925 201.10985306 360.80794385 201.14401245 364.96656799 C201.17682359 368.98662255 201.19459252 373.00649796 201.20232582 377.02667618 C201.20783058 378.55353741 201.2185791 380.08038983 201.23488426 381.60717392 C201.34827109 392.6736559 201.04591813 402.93017119 193.78878784 411.87037659 C186.7600512 418.47357385 178.19752517 419.75873823 168.90255737 419.74171448 C168.22868484 419.7418605 167.55481232 419.74200653 166.86051941 419.74215698 C164.65298136 419.74146529 162.44552974 419.73370805 160.23800659 419.72584534 C158.69958543 419.72397851 157.16116367 419.72255586 155.6227417 419.72155762 C151.58845354 419.71775328 147.55420182 419.70794092 143.51992798 419.69685364 C139.39731336 419.68659459 135.27469282 419.68205039 131.15206909 419.67701721 C123.07392744 419.66631666 114.99581531 419.64926544 106.91769409 419.62818909 C106.92768684 420.93245094 106.92768684 420.93245094 106.93788147 422.26306152 C106.99817439 430.48655272 107.04376055 438.7099689 107.07313061 446.93363094 C107.08873803 451.16077091 107.10988545 455.38772711 107.14401245 459.61476135 C107.17678272 463.69964956 107.19458407 467.78436182 107.20232582 471.86937141 C107.20783781 473.42217844 107.21860086 474.97497663 107.23488426 476.52770805 C107.34345464 487.316845 107.07913601 497.03694227 99.83338821 505.6970492 C94.09160413 511.48512787 87.04866955 513.19559089 79.12632072 513.29224402 C78.04031298 513.28040829 76.95430525 513.26857256 75.83538818 513.25637817 C74.06694398 513.26701975 74.06694398 513.26701975 72.26277363 513.27787632 C69.01682382 513.29235374 65.77183516 513.28463394 62.52592921 513.26715338 C59.01531427 513.25371829 55.5048062 513.26923819 51.99420166 513.28097534 C45.12801697 513.29930965 38.26211774 513.29086847 31.39594208 513.27288712 C25.81461158 513.25883713 20.23335835 513.25497346 14.65201187 513.25832939 C13.85637252 513.25880683 13.06073316 513.25928428 12.24098352 513.25977619 C10.6244687 513.26080256 9.00795389 513.26185792 7.3914391 513.26294195 C-6.88713835 513.2715002 -21.16557832 513.25486126 -35.44412231 513.22511292 C-49.28988415 513.19626676 -63.13544804 513.18919823 -76.98123169 513.2046051 C-92.072455 513.22137493 -107.16358444 513.22539436 -122.25481021 513.20789474 C-123.8646252 513.20605042 -125.47444021 513.20421569 -127.08425522 513.20239067 C-128.27223749 513.20102254 -128.27223749 513.20102254 -129.48421941 513.19962676 C-135.05805984 513.19402706 -140.63185435 513.19732316 -146.20569229 513.20393562 C-152.99931505 513.21167553 -159.79274314 513.20489235 -166.58632673 513.17976058 C-170.0506903 513.16728188 -173.51475104 513.161099 -176.97912598 513.17230225 C-180.737725 513.18098782 -184.49544201 513.16505383 -188.25396729 513.14285278 C-189.34443647 513.15109355 -190.43490565 513.15933432 -191.55841935 513.1678248 C-199.70300021 513.07899892 -205.99728173 511.32800692 -211.89480591 505.31568909 C-212.43750122 504.78330627 -212.98019653 504.25092346 -213.53933716 503.70240784 C-218.45881046 497.08914119 -218.51558676 490.89723992 -218.47671509 482.92010498 C-218.48280619 481.74511658 -218.48889729 480.57012819 -218.49517298 479.35953408 C-218.50891172 476.11089977 -218.50926329 472.8625877 -218.50379801 469.61393917 C-218.50112256 466.10528728 -218.51566929 462.59669951 -218.52789307 459.08807373 C-218.54892807 452.21888088 -218.55348901 445.34977246 -218.55170518 438.48055121 C-218.5503965 432.89536227 -218.5542071 427.31019963 -218.56163025 421.72501564 C-218.5637295 420.11493772 -218.5658271 418.50485981 -218.56792307 416.89478189 C-218.5689666 416.09334378 -218.57001012 415.29190567 -218.57108527 414.46618155 C-218.5899801 399.31494304 -218.58893987 384.16375295 -218.58211595 369.01250754 C-218.57654188 355.16186592 -218.59736138 341.31140936 -218.63047642 327.46081098 C-218.66423763 313.22914898 -218.67937867 298.99757556 -218.67475939 284.76587278 C-218.67251704 276.77983296 -218.6777233 268.79396414 -218.70265198 260.8079586 C-218.72369664 254.00845802 -218.72722596 247.20922218 -218.70835239 240.40971061 C-218.69921356 236.94301464 -218.69799349 233.47681185 -218.71870804 230.01015472 C-218.73689195 226.24539549 -218.72415476 222.48194407 -218.70376587 218.71722412 C-218.71628372 217.63053426 -218.72880157 216.54384441 -218.74169874 215.42422456 C-218.64986002 207.49845921 -216.94186315 200.45677192 -211.15113974 194.71252126 C-201.85011087 186.9302793 -191.15735918 187.21477566 -179.67214966 187.33522034 C-178.09317938 187.34082519 -176.51420383 187.34509108 -174.93522644 187.3480835 C-170.80714158 187.35946236 -166.67938033 187.38886832 -162.55142212 187.42219543 C-158.32803727 187.45304759 -154.10459943 187.46662099 -149.88113403 187.48170471 C-141.61471055 187.5137458 -133.34854864 187.56485632 -125.08230591 187.62818909 C-125.09229866 186.34605026 -125.09229866 186.34605026 -125.10249329 185.03800964 C-125.1628288 176.94727587 -125.20839376 168.85661865 -125.23774242 160.76571083 C-125.25333856 156.60697893 -125.27446487 152.44843432 -125.30862427 148.28981018 C-125.34143541 144.26975562 -125.35920433 140.24988022 -125.36693764 136.229702 C-125.37244239 134.70284077 -125.38319092 133.17598834 -125.39949608 131.64920425 C-125.51293255 120.57787674 -125.20435343 110.33610528 -117.95730591 101.38600159 C-111.20507042 95.05578081 -103.02743035 93.49855823 -94.08889771 93.5146637 C-93.0636776 93.51444466 -93.0636776 93.51444466 -92.01774597 93.51422119 C-89.7723059 93.51491447 -87.52695013 93.52267934 -85.28152466 93.53053284 C-83.719254 93.5323991 -82.15698276 93.53382202 -80.5947113 93.53482056 C-76.49300506 93.53862937 -72.39133452 93.54844563 -68.28964233 93.55952454 C-64.10009239 93.56977389 -59.91053666 93.57432572 -55.72097778 93.57936096 C-47.50807082 93.59006941 -39.29519281 93.60712612 -31.08230591 93.62818909 C-31.09229866 92.32392723 -31.09229866 92.32392723 -31.10249329 90.99331665 C-31.16278621 82.76982545 -31.20837237 74.54640928 -31.23774242 66.32274723 C-31.25334985 62.09560726 -31.27449726 57.86865106 -31.30862427 53.64161682 C-31.34139453 49.55672861 -31.35919589 45.47201635 -31.36693764 41.38700676 C-31.37244962 39.83419974 -31.38321268 38.28140155 -31.39949608 36.72867012 C-31.50806646 25.93953318 -31.24374783 16.2194359 -23.99800003 7.55932897 C-17.27575033 0.78287943 -9.09608435 -0.09913261 0 0 Z " fill="#EC6B68" transform="translate(218.08230590820313,-0.6281890869140625)"/>
<path d="M0 0 C0.68026749 -0.00335861 1.36053497 -0.00671722 2.06141663 -0.01017761 C4.29722952 -0.01963363 6.53296722 -0.02162747 8.76879883 -0.02270508 C10.326279 -0.02591943 11.88375887 -0.02928364 13.4412384 -0.03279114 C16.69846294 -0.03876758 19.95566099 -0.04063237 23.21289062 -0.04003906 C27.39283932 -0.03993708 31.57261955 -0.0536334 35.75252819 -0.07081127 C38.96520271 -0.08190576 42.17783601 -0.08395912 45.39052773 -0.08342934 C46.93235166 -0.08461161 48.47417659 -0.0890472 50.01598167 -0.0967617 C52.16572469 -0.10651802 54.31509522 -0.10370203 56.46484375 -0.09765625 C58.3008741 -0.09979378 58.3008741 -0.09979378 60.17399597 -0.10197449 C63.03833008 0.14526367 63.03833008 0.14526367 65.03833008 2.14526367 C65.19702793 5.10002789 65.23019186 7.95657566 65.17358398 10.90942383 C65.15907731 12.29253533 65.15907731 12.29253533 65.14427757 13.70358849 C65.11057388 16.69736827 65.06297528 19.69074633 65.01489258 22.68432617 C64.99208678 24.52896027 64.97018887 26.37360583 64.94921875 28.21826172 C64.8649421 35.06907346 64.76305739 41.91965943 64.66333008 48.77026367 C64.45708008 64.07401367 64.25083008 79.37776367 64.03833008 95.14526367 C18.00333008 95.64026367 18.00333008 95.64026367 -28.96166992 96.14526367 C-29.07820052 133.0720044 -29.07820052 133.0720044 -29.15698242 169.9987793 C-29.18072061 185.05653327 -29.2086331 200.11419773 -29.26342773 215.171875 C-29.30331464 226.13811055 -29.32910733 237.10427351 -29.3380239 248.07057959 C-29.34323545 253.8763929 -29.3554717 259.68199857 -29.38459015 265.48774529 C-29.41178831 270.95503831 -29.42010591 276.4220386 -29.41410065 281.88939285 C-29.4151989 283.89326253 -29.42312638 285.89714223 -29.43849182 287.90095329 C-29.45848859 290.64383315 -29.4535739 293.38561787 -29.44268799 296.12852478 C-29.45433935 296.9155174 -29.46599072 297.70251002 -29.47799516 298.5133509 C-29.40221645 305.61100108 -27.16130134 311.47003627 -22.64916992 316.95776367 C-16.23228815 322.18080697 -10.94002789 324.29376483 -2.71751404 324.29675293 C-1.42356479 324.30310155 -1.42356479 324.30310155 -0.10347515 324.30957842 C2.80390235 324.32265521 5.71125239 324.32864076 8.61865234 324.3347168 C10.69611785 324.34265507 12.77358169 324.35104269 14.8510437 324.35984802 C19.33254577 324.3779339 23.81404408 324.39293905 28.29556465 324.40562439 C35.3740641 324.42579754 42.4525219 324.45345549 49.5309906 324.4822998 C65.83369241 324.54757817 82.13642509 324.60297223 98.43916321 324.65828705 C113.37933586 324.70907566 128.3194934 324.76191623 143.25962871 324.82281256 C150.3042418 324.85123936 157.34884983 324.87480714 164.39349186 324.89473724 C168.76604362 324.908081 173.13857212 324.92549551 177.51110458 324.94404793 C179.54734016 324.95183374 181.58358315 324.95789017 183.61982918 324.96214104 C186.38697879 324.96814596 189.15403674 324.98017325 191.92115784 324.99377441 C193.14622735 324.99421839 193.14622735 324.99421839 194.39604574 324.99467134 C199.9242371 325.03117069 199.9242371 325.03117069 201.03833008 326.14526367 C201.14846723 328.30588564 201.18747233 330.4701509 201.19946289 332.63354492 C201.2044278 333.31173782 201.2093927 333.98993073 201.21450806 334.68867493 C201.22917646 336.94504803 201.23594288 339.2013506 201.24145508 341.45776367 C201.24720708 343.02661135 201.25296481 344.595459 201.25872803 346.16430664 C201.26925428 349.4631381 201.27508485 352.76194511 201.27856445 356.06079102 C201.28402241 360.26938473 201.30798504 364.47765051 201.33653641 368.68614197 C201.35525759 371.93256537 201.36037362 375.17891172 201.36190033 378.42538452 C201.3649111 379.97539036 201.37288589 381.52539535 201.38608551 383.0753479 C201.47118374 393.84569585 201.18517585 403.57146215 193.9540242 412.21412379 C188.21224011 418.00220245 181.16930554 419.71266547 173.24695671 419.8093186 C172.16094897 419.79748287 171.07494123 419.78564715 169.95602417 419.77345276 C168.77706137 419.78054715 167.59809857 419.78764153 166.38340962 419.7949509 C163.13745981 419.80942833 159.89247115 419.80170853 156.6465652 419.78422797 C153.13595026 419.77079287 149.62544219 419.78631278 146.11483765 419.79804993 C139.24865296 419.81638424 132.38275372 419.80794305 125.51657806 419.7899617 C119.93524757 419.77591172 114.35399434 419.77204804 108.77264786 419.77540398 C107.9770085 419.77588142 107.18136915 419.77635886 106.36161951 419.77685077 C104.74510468 419.77787714 103.12858987 419.7789325 101.51207508 419.78001653 C87.23349763 419.78857479 72.95505766 419.77193585 58.67651367 419.7421875 C44.83075184 419.71334135 30.98518795 419.70627281 17.1394043 419.72167969 C2.04818098 419.73844951 -13.04294845 419.74246894 -28.13417423 419.72496933 C-29.74398922 419.723125 -31.35380422 419.72129028 -32.96361923 419.71946526 C-33.75560742 419.71855317 -34.5475956 419.71764108 -35.36358342 419.71670135 C-40.93742386 419.71110164 -46.51121837 419.71439775 -52.0850563 419.72101021 C-58.87867907 419.72875011 -65.67210716 419.72196693 -72.46569075 419.69683517 C-75.93005432 419.68435647 -79.39411505 419.67817359 -82.85848999 419.68937683 C-86.61708901 419.69806241 -90.37480602 419.68212842 -94.1333313 419.65992737 C-95.22380048 419.66816814 -96.31426966 419.6764089 -97.43778336 419.68489939 C-105.58236422 419.5960735 -111.87664575 417.8450815 -117.77416992 411.83276367 C-118.31686523 411.30038086 -118.85956055 410.76799805 -119.41870117 410.21948242 C-124.33817448 403.60621578 -124.39495077 397.4143145 -124.3560791 389.43717957 C-124.36217021 388.26219117 -124.36826131 387.08720277 -124.37453699 385.87660867 C-124.38827573 382.62797435 -124.38862731 379.37966229 -124.38316202 376.13101375 C-124.38048658 372.62236187 -124.3950333 369.1137741 -124.40725708 365.60514832 C-124.42829209 358.73595546 -124.43285303 351.86684705 -124.4310692 344.99762579 C-124.42976052 339.41243685 -124.43357111 333.82727421 -124.44099426 328.24209023 C-124.44309351 326.63201231 -124.44519111 325.02193439 -124.44728708 323.41185647 C-124.44833061 322.61041836 -124.44937414 321.80898025 -124.45044929 320.98325614 C-124.46934411 305.83201762 -124.46830388 290.68082754 -124.46147996 275.52958212 C-124.4559059 261.67894051 -124.4767254 247.82848394 -124.50984043 233.97788557 C-124.54360164 219.74622357 -124.55874268 205.51465015 -124.5541234 191.28294736 C-124.55188106 183.29690755 -124.55708731 175.31103873 -124.58201599 167.32503319 C-124.60306066 160.52553261 -124.60658998 153.72629677 -124.5877164 146.92678519 C-124.57857757 143.46008922 -124.5773575 139.99388644 -124.59807205 136.52722931 C-124.61625597 132.76247007 -124.60351877 128.99901865 -124.58312988 125.23429871 C-124.59564773 124.14760885 -124.60816558 123.06091899 -124.62106276 121.94129914 C-124.52922404 114.01553379 -122.82122716 106.9738465 -117.03050375 101.22959584 C-107.72947489 93.44735389 -97.0367232 93.73185024 -85.55151367 93.85229492 C-83.97254339 93.85789978 -82.39356785 93.86216567 -80.81459045 93.86515808 C-76.6865056 93.87653695 -72.55874435 93.90594291 -68.43078613 93.93927002 C-64.20740128 93.97012217 -59.98396344 93.98369558 -55.76049805 93.9987793 C-47.49407456 94.03082038 -39.22791265 94.0819309 -30.96166992 94.14526367 C-30.97166267 92.86312485 -30.97166267 92.86312485 -30.9818573 91.55508423 C-31.04219281 83.46435046 -31.08775777 75.37369323 -31.11710644 67.28278542 C-31.13270258 63.12405351 -31.15382889 58.96550891 -31.18798828 54.80688477 C-31.22079942 50.78683021 -31.23856835 46.7669548 -31.24630165 42.74677658 C-31.25180641 41.21991535 -31.26255493 39.69306293 -31.27886009 38.16627884 C-31.39229657 27.09495133 -31.08371745 16.85317986 -23.83666992 7.90307617 C-17.09722613 1.58484762 -8.9213267 0.02772839 0 0 Z " fill="#56A2E2" transform="translate(123.961669921875,92.854736328125)"/>
<path d="M0 0 C1.7684442 -0.01064158 1.7684442 -0.01064158 3.57261455 -0.02149814 C6.81856436 -0.03597557 10.06355302 -0.02825577 13.30945897 -0.01077521 C16.82007391 0.00265989 20.33058198 -0.01286002 23.84118652 -0.02459717 C30.70737121 -0.04293148 37.57327045 -0.03449029 44.43944611 -0.01650894 C50.0207766 -0.00245896 55.60202983 0.00140472 61.18337631 -0.00195122 C61.97901567 -0.00242866 62.77465502 -0.0029061 63.59440466 -0.00339801 C65.21091949 -0.00442438 66.8274343 -0.00547974 68.44394909 -0.00656378 C82.72252654 -0.01512203 97.00096651 0.00151691 111.2795105 0.03126526 C125.12527233 0.06011141 138.97083622 0.06717994 152.81661987 0.05177307 C167.90784319 0.03500325 182.99897262 0.03098382 198.0901984 0.04848343 C199.70001339 0.05032776 201.30982839 0.05216248 202.9196434 0.0539875 C203.71163159 0.05489959 204.50361977 0.05581168 205.31960759 0.05675141 C210.89344803 0.06235112 216.46724254 0.05905501 222.04108047 0.05244255 C228.83470324 0.04470265 235.62813133 0.05148582 242.42171492 0.07661759 C245.88607849 0.08909629 249.35013922 0.09527917 252.81451416 0.08407593 C256.57311318 0.07539035 260.33083019 0.09132434 264.08935547 0.11352539 C265.72505924 0.10116424 265.72505924 0.10116424 267.39380753 0.08855337 C275.53838839 0.17737926 281.83266992 1.92837126 287.73019409 7.94068909 C288.2728894 8.4730719 288.81558472 9.00545471 289.37472534 9.55397034 C294.29419865 16.16723698 294.35097494 22.35913825 294.31210327 30.33627319 C294.31819438 31.51126159 294.32428548 32.68624998 294.33056116 33.89684409 C294.3442999 37.14547841 294.34465148 40.39379047 294.33918619 43.64243901 C294.33651075 47.15109089 294.35105747 50.65967866 294.36328125 54.16830444 C294.38431626 61.0374973 294.3888772 67.90660571 294.38709337 74.77582697 C294.38578469 80.3610159 294.38959528 85.94617854 294.39701843 91.53136253 C294.39911768 93.14144045 294.40121528 94.75151837 294.40331125 96.36159629 C294.40487654 97.56375345 294.40487654 97.56375345 294.40647346 98.79019662 C294.42536828 113.94143514 294.42432805 129.09262522 294.41750413 144.24387064 C294.41193007 158.09451225 294.43274957 171.94496882 294.4658646 185.79556719 C294.49962581 200.02722919 294.51476685 214.25880261 294.51014757 228.4905054 C294.50790523 236.47654521 294.51311148 244.46241403 294.53804016 252.44841957 C294.55908483 259.24792015 294.56261415 266.04715599 294.54374057 272.84666757 C294.53460174 276.31336354 294.53338167 279.77956632 294.55409622 283.24622345 C294.57228014 287.01098269 294.55954294 290.77443411 294.53915405 294.53915405 C294.5516719 295.62584391 294.56418975 296.71253377 294.57708693 297.83215362 C294.49372492 305.02637058 293.07951826 310.6650191 288.91769409 316.62818909 C286.41412856 318.9718684 283.87161164 320.88989963 280.91769409 322.62818909 C280.37042664 322.97735382 279.82315918 323.32651855 279.25930786 323.68626404 C276.01590175 324.99093926 272.92703325 324.89076537 269.48703003 324.85523987 C268.74517456 324.85553192 268.00331909 324.85582397 267.23898315 324.85612488 C264.79322509 324.85473442 262.34777377 324.83918673 259.90206909 324.82350159 C258.20384894 324.81977045 256.50562664 324.81692395 254.80740356 324.81492615 C250.34231603 324.80729765 245.87735903 324.7876559 241.412323 324.76551819 C236.85423549 324.74504288 232.29612685 324.73592083 227.73800659 324.72584534 C218.79784514 324.70440927 209.85778048 324.67028277 200.91769409 324.62818909 C200.91272887 323.04674732 200.91272887 323.04674732 200.90766335 321.43335724 C200.82666105 295.77735455 200.73434297 270.12141159 200.63016701 244.46549225 C200.5800501 232.05847404 200.53360701 219.65146241 200.49581909 207.24440002 C200.46287297 196.43012606 200.42302715 185.61590328 200.37490404 174.80168581 C200.34966521 169.07592269 200.32787611 163.35019341 200.31435013 157.62438965 C200.30150615 152.23344897 200.27942634 146.84262449 200.2503109 141.45174789 C200.24125343 139.47490064 200.23554917 137.49803468 200.23348045 135.52116776 C200.230145 132.81757452 200.21463284 130.11430813 200.19616699 127.41078186 C200.19906909 126.24343293 200.19906909 126.24343293 200.20202982 125.0525012 C200.12430248 117.41554752 198.81625231 109.76216081 193.91769409 103.62818909 C187.16511903 97.47018039 181.41344276 95.32788047 172.26808167 95.34971619 C171.39809644 95.34392378 170.52811122 95.33813138 169.6317628 95.33216345 C166.71751415 95.31516242 163.80342387 95.31228685 160.88912964 95.30934143 C158.79974479 95.30004333 156.71036366 95.28987484 154.62098694 95.27890015 C148.94791812 95.25157278 143.27487418 95.23644258 137.60175681 95.22347212 C131.67333352 95.2078536 125.7449611 95.18105929 119.8165741 95.15544128 C108.58989809 95.10863088 97.36321254 95.07189769 86.13648874 95.03876841 C73.35544787 95.00056303 60.57445808 94.95114871 47.79346025 94.90078425 C21.50157604 94.79743074 -4.79034098 94.70818143 -31.08230591 94.62818909 C-31.15203449 85.39602963 -31.20523267 76.16396182 -31.23774242 66.9315958 C-31.25335107 62.64392307 -31.27450079 58.35643145 -31.30862427 54.06886292 C-31.34139007 49.92562027 -31.35919497 45.78255106 -31.36693764 41.63918877 C-31.37245041 40.06405345 -31.38321504 38.48892686 -31.39949608 36.91386604 C-31.50657828 26.11821454 -31.29095858 16.27586213 -23.99800003 7.55932897 C-17.27575033 0.78287943 -9.09608435 -0.09913261 0 0 Z " fill="#FCBE3A" transform="translate(218.08230590820313,-0.6281890869140625)"/>
<path d="M0 0 C0.87537415 0.00359528 1.75074829 0.00719055 2.65264893 0.01089478 C4.02812141 0.01067574 4.02812141 0.01067574 5.43138123 0.01045227 C8.47773564 0.01115177 11.52402973 0.01894589 14.57037354 0.02676392 C16.67644721 0.02862796 18.78252132 0.03005193 20.88859558 0.03105164 C26.44364612 0.03487786 31.99867069 0.04470903 37.55371094 0.05575562 C43.21746469 0.0659675 48.88122262 0.07054878 54.54498291 0.07559204 C65.66673914 0.0863312 76.78847606 0.10340887 87.91021729 0.12442017 C87.90745191 0.71487877 87.90468653 1.30533737 87.90183735 1.91368866 C87.83548541 16.30358681 87.78589198 30.69347128 87.75478077 45.08348846 C87.73933439 52.04250087 87.71828776 59.00141095 87.68389893 65.96035767 C87.65072003 72.67768255 87.63335739 79.39487922 87.62558556 86.11228943 C87.62004783 88.67349418 87.60923403 91.2346932 87.59302711 93.79585266 C87.57121109 97.3866222 87.56825219 100.97695425 87.56964111 104.56777954 C87.55885529 105.623703 87.54806946 106.67962646 87.53695679 107.76754761 C87.57242007 116.25535284 89.18162956 123.15206734 95.02740479 129.58535767 C98.52659168 132.44568886 102.65157242 133.76106742 106.91021729 135.12442017 C107.90021729 135.45442017 108.89021729 135.78442017 109.91021729 136.12442017 C111.4580764 136.22500293 113.00982094 136.27058801 114.56089783 136.28263855 C115.99328293 136.29732178 115.99328293 136.29732178 117.4546051 136.31230164 C119.02337654 136.32093483 119.02337654 136.32093483 120.62384033 136.32974243 C121.72643188 136.33964203 122.82902344 136.34954163 123.96502686 136.35974121 C127.61730791 136.39138295 131.26960199 136.41612431 134.92193604 136.44082642 C137.45113975 136.46139363 139.98034001 136.48239003 142.50953674 136.50379944 C148.49117163 136.55339452 154.47282419 136.59865362 160.45450765 136.6418218 C169.12720913 136.70471755 177.79983906 136.77636238 186.47248077 136.84694672 C198.61835817 136.94498639 210.76427182 137.03382194 222.91021729 137.12442017 C222.91021729 167.81442017 222.91021729 198.50442017 222.91021729 230.12442017 C170.31923574 230.2856323 170.31923574 230.2856323 148.29693604 230.31973267 C133.08545545 230.34347583 117.87406342 230.37140222 102.66265869 230.42617798 C91.58473138 230.4660502 80.50687586 230.49185409 69.42887878 230.50077415 C63.56329461 230.50598818 57.69791581 230.51824026 51.83239746 230.54734039 C46.31011634 230.57451535 40.78812495 230.58286083 35.26578331 230.57685089 C33.24053052 230.57795018 31.21526792 230.58589151 29.19007301 230.60124207 C26.4205713 230.6212024 23.65215733 230.61633725 20.88262939 230.60543823 C20.08494204 230.6170896 19.28725468 230.62874096 18.46539497 230.6407454 C10.74095484 230.55882117 4.51525909 227.41807076 -1.08978271 222.12442017 C-6.1744634 215.44169698 -7.38976847 209.62845719 -7.33702087 201.47517395 C-7.33943529 200.61729052 -7.3418497 199.7594071 -7.34433728 198.8755272 C-7.34996185 196.0081368 -7.34132066 193.1409704 -7.33270264 190.27359009 C-7.33377579 188.21523987 -7.33571496 186.15688994 -7.3384552 184.09854126 C-7.34329986 178.51426688 -7.33565365 172.93007249 -7.32550216 167.34580779 C-7.31672047 161.50730845 -7.31847909 155.66881161 -7.31886292 149.83030701 C-7.31792665 140.03095154 -7.30924579 130.23162706 -7.29559326 120.43228149 C-7.27984625 109.08732868 -7.27459593 97.74240976 -7.27532881 86.39744681 C-7.27593806 75.49552831 -7.27084348 64.59362088 -7.262537 53.6917057 C-7.25899789 49.04537177 -7.25717287 44.39904175 -7.2566433 39.75270653 C-7.25564246 34.29034805 -7.24956722 28.82801827 -7.23947716 23.36566925 C-7.23654444 21.35522703 -7.23532834 19.34478151 -7.23590469 17.33433723 C-7.23639172 14.60244321 -7.23077622 11.87063087 -7.22349548 9.13874817 C-7.22504409 8.33254553 -7.22659269 7.5263429 -7.22818822 6.69570988 C-7.19812411 -0.07635996 -6.72465203 0.0116674 0 0 Z " fill="#AC65B3" transform="translate(101.08978271484375,187.87557983398438)"/>
<path d="M0 0 C1.45923637 -0.0129007 1.45923637 -0.0129007 2.94795227 -0.02606201 C4.024254 -0.03032196 5.10055573 -0.03458191 6.20947266 -0.03897095 C7.3363298 -0.04714844 8.46318695 -0.05532593 9.62419128 -0.06375122 C13.37396709 -0.08867323 17.12370475 -0.10514224 20.87353516 -0.11953735 C22.7915242 -0.12752287 22.7915242 -0.12752287 24.7482605 -0.13566971 C30.12519293 -0.15691875 35.50211196 -0.17604595 40.8790741 -0.1872921 C48.57648879 -0.20349749 56.27339587 -0.23657347 63.9706192 -0.29369295 C70.03985784 -0.33718693 76.10889876 -0.35305032 82.17828369 -0.35942459 C84.7554281 -0.36613685 87.33256514 -0.38135807 89.90960693 -0.4053154 C93.52427418 -0.43699036 97.13767136 -0.43699872 100.75244141 -0.42959595 C102.34260323 -0.45420395 102.34260323 -0.45420395 103.96488953 -0.47930908 C112.38846514 -0.40891269 118.38729265 2.09591181 124.56494141 7.8296814 C125.38865234 8.69979858 126.21236328 9.56991577 127.06103516 10.46640015 C127.90794922 11.34940796 128.75486328 12.23241577 129.62744141 13.1421814 C130.55363281 14.13798218 130.55363281 14.13798218 131.49853516 15.15390015 C131.16853516 15.81390015 130.83853516 16.47390015 130.49853516 17.15390015 C130.80867128 18.82503882 131.14532438 20.49133254 131.49853516 22.15390015 C131.58284228 23.79527645 131.62060173 25.43951455 131.61878967 27.08305359 C131.62085167 28.53218391 131.62085167 28.53218391 131.62295532 30.0105896 C131.61936005 31.05859741 131.61576477 32.10660522 131.61206055 33.18637085 C131.61220657 34.29900803 131.6123526 35.4116452 131.61250305 36.55799866 C131.61180695 40.2319128 131.60402866 43.90577612 131.59619141 47.5796814 C131.59432615 50.12844312 131.59290276 52.6772052 131.59190369 55.22596741 C131.58847698 61.2465255 131.5805972 67.26706181 131.5705542 73.28761119 C131.55936633 80.14370056 131.55387587 86.99979082 131.54885876 93.85588706 C131.53841386 107.95523483 131.52083109 122.05456649 131.49853516 136.15390015 C133.24287086 136.15056923 133.24287086 136.15056923 135.02244568 136.14717102 C145.95622883 136.12694103 156.89000822 136.1119287 167.82380581 136.10208797 C173.44561477 136.09685878 179.06740869 136.08976049 184.68920898 136.07846069 C190.10971793 136.06763309 195.53021236 136.06162358 200.95073128 136.0590229 C203.0236846 136.05716842 205.09663709 136.05354738 207.16958427 136.04817009 C210.06237409 136.04096134 212.95510311 136.03990913 215.84790039 136.04037476 C216.7139238 136.03677948 217.5799472 136.0331842 218.47221375 136.02947998 C224.38448299 136.03984799 224.38448299 136.03984799 225.49853516 137.15390015 C225.60862706 139.27859967 225.64767394 141.40699936 225.65966797 143.53451538 C225.66463287 144.20134842 225.66959778 144.86818146 225.67471313 145.55522156 C225.68938346 147.7743227 225.6961489 149.99335209 225.70166016 152.2124939 C225.70741279 153.75652569 225.71317051 155.30055747 225.71893311 156.84458923 C225.72946043 160.09214613 225.73529003 163.33967818 225.73876953 166.58724976 C225.74422235 170.72624548 225.76817324 174.86490688 225.79674149 179.00379848 C225.81548441 182.19965018 225.82057987 185.39542377 225.82210541 188.59132576 C225.82511221 190.11538561 225.83307324 191.63944474 225.84629059 193.16345024 C225.93517232 204.21125635 225.6130309 214.47279442 218.36962891 223.39608765 C211.31118708 230.02719165 202.721367 231.28426627 193.39160156 231.26742554 C192.69702536 231.26754607 192.00244915 231.26766661 191.28682518 231.26779079 C189.05788243 231.26704959 186.82902528 231.2594578 184.60009766 231.2515564 C183.21622762 231.25008452 181.83235703 231.24906532 180.44848633 231.24850464 C175.34016073 231.24328025 170.23184709 231.22931898 165.12353516 231.21640015 C153.69728516 231.19577515 142.27103516 231.17515015 130.49853516 231.15390015 C130.49853516 200.13390015 130.49853516 169.11390015 130.49853516 137.15390015 C122.46896484 137.2003064 114.43939453 137.24671265 106.16650391 137.29452515 C101.06688153 137.31497338 95.96731 137.33422994 90.86767578 137.34921265 C82.78073476 137.37308498 74.69397419 137.40066208 66.60717773 137.45565796 C60.08437629 137.49999619 53.56169664 137.52306638 47.0387516 137.53340912 C44.55537152 137.54077594 42.07200162 137.55516145 39.58870506 137.57682037 C36.09902586 137.60603477 32.61014396 137.60984849 29.12036133 137.60800171 C28.10327591 137.62238281 27.08619049 137.63676392 26.0382843 137.65158081 C16.6969409 137.59840373 7.86026793 135.36105709 0.93212891 128.7984314 C-3.63013646 123.56487903 -5.62537004 118.19744303 -5.62844849 111.31376648 C-5.63126831 110.34208527 -5.63408813 109.37040405 -5.63699341 108.36927795 C-5.63496918 107.30989517 -5.63294495 106.25051239 -5.63085938 105.1590271 C-5.63348785 103.47806946 -5.63348785 103.47806946 -5.63616943 101.76315308 C-5.64057373 98.0561468 -5.63765552 94.34918816 -5.63427734 90.6421814 C-5.63495065 88.07196544 -5.6359209 85.50174955 -5.63717651 82.93153381 C-5.63865144 77.54560684 -5.63660008 72.15969784 -5.63183594 66.77377319 C-5.62638569 60.54005789 -5.62816287 54.30637526 -5.63366234 48.07266074 C-5.63873833 42.07975391 -5.6382126 36.08686312 -5.63528061 30.09395409 C-5.63461128 27.54093611 -5.63543995 24.9879173 -5.63776016 22.43490028 C-5.64028465 18.87677385 -5.63644936 15.31871125 -5.63085938 11.7605896 C-5.63288361 10.69513412 -5.63490784 9.62967865 -5.63699341 8.53193665 C-5.63417358 7.5687149 -5.63135376 6.60549316 -5.62844849 5.61308289 C-5.62807146 4.77115041 -5.62769444 3.92921793 -5.62730598 3.06177235 C-5.38156272 -0.66393084 -3.22033557 0.02110674 0 0 Z " fill="#DC1E73" transform="translate(193.50146484375,187.84609985351563)"/>
<path d="M0 0 C0.68026749 -0.00335861 1.36053497 -0.00671722 2.06141663 -0.01017761 C4.29722952 -0.01963363 6.53296722 -0.02162747 8.76879883 -0.02270508 C10.326279 -0.02591943 11.88375887 -0.02928364 13.4412384 -0.03279114 C16.69846294 -0.03876758 19.95566099 -0.04063237 23.21289062 -0.04003906 C27.39283932 -0.03993708 31.57261955 -0.0536334 35.75252819 -0.07081127 C38.96520271 -0.08190576 42.17783601 -0.08395912 45.39052773 -0.08342934 C46.93235166 -0.08461161 48.47417659 -0.0890472 50.01598167 -0.0967617 C52.16572469 -0.10651802 54.31509522 -0.10370203 56.46484375 -0.09765625 C58.3008741 -0.09979378 58.3008741 -0.09979378 60.17399597 -0.10197449 C63.03833008 0.14526367 63.03833008 0.14526367 65.03833008 2.14526367 C65.19702055 5.09989044 65.23021692 7.9567014 65.17358398 10.90942383 C65.16412247 11.81679794 65.15466095 12.72417206 65.14491272 13.65904236 C65.11114999 16.66767157 65.06305807 19.67589585 65.01489258 22.68432617 C64.98873422 24.76653984 64.96346652 26.84876486 64.9390564 28.93099976 C64.87231952 34.41876576 64.79344534 39.90629359 64.71209717 45.39385986 C64.63126081 50.99058877 64.56182864 56.58745766 64.49145508 62.18432617 C64.35161518 73.17147316 64.19896089 84.15840236 64.03833008 95.14526367 C51.79958977 95.29883055 39.56079743 95.44701233 27.321908 95.58822727 C21.63953634 95.65396291 15.95719999 95.7215872 10.27490234 95.79345703 C4.79608543 95.86268492 -0.68276861 95.92704419 -6.16168404 95.98795891 C-8.25698503 96.01212359 -10.3522662 96.03807344 -12.44752312 96.06579781 C-15.37139657 96.10418803 -18.29527479 96.13635678 -21.21923828 96.16699219 C-22.5322995 96.18641121 -22.5322995 96.18641121 -23.87188721 96.20622253 C-25.90183636 96.22425827 -27.93214558 96.19053808 -29.96166992 96.14526367 C-31.8255032 94.28143039 -31.10897802 91.16106566 -31.12280273 88.67285156 C-31.12776764 87.99626495 -31.13273254 87.31967834 -31.1378479 86.62258911 C-31.15251837 84.3710225 -31.15928362 82.1195266 -31.16479492 79.86791992 C-31.17054745 78.30146788 -31.17630518 76.73501585 -31.18206787 75.16856384 C-31.19259517 71.87392854 -31.19842482 68.57931774 -31.2019043 65.28466797 C-31.2073577 61.08514023 -31.2313099 56.8859419 -31.25987625 52.68651676 C-31.27861647 49.44434204 -31.2837145 46.20224434 -31.28524017 42.96002007 C-31.28824748 41.41363179 -31.29621026 39.86724423 -31.30942535 38.3209095 C-31.39709653 27.26222088 -31.11066907 16.88646512 -23.83666992 7.90307617 C-17.09722613 1.58484762 -8.9213267 0.02772839 0 0 Z " fill="#FDACE0" transform="translate(123.961669921875,92.854736328125)"/>
<path d="M0 0 C0.33 0 0.66 0 1 0 C1 37.62 1 75.24 1 114 C10.9 114 20.8 114 31 114 C31 114.33 31 114.66 31 115 C16.645 115.495 16.645 115.495 2 116 C1.67 146.69 1.34 177.38 1 209 C0.67 209 0.34 209 0 209 C0 177.98 0 146.96 0 115 C-37.29 115 -74.58 115 -113 115 C-113 114.67 -113 114.34 -113 114 C-75.71 114 -38.42 114 0 114 C0 76.38 0 38.76 0 0 Z " fill="#AC3772" transform="translate(324,210)"/>
</svg>
